<svg width="90" height="90" viewBox="0 0 90 90" fill="none" xmlns="http://www.w3.org/2000/svg">
<rect x="1.5" y="19.5" width="87" height="50" stroke="#579A24" stroke-width="3"/>
<path d="M23.64 43.416V46.52L11.352 54.168L9.592 51.608L20.536 44.984L9.592 38.424L11.256 35.768L23.64 43.416ZM56.479 37.656C60.575 37.656 62.623 40.6107 62.623 46.52C62.623 49.1867 62.0577 51.3413 60.927 52.984C59.7963 54.6053 58.1857 55.416 56.095 55.416C54.3243 55.416 52.895 54.7973 51.807 53.56V61.496L48.223 61.912V38.104H51.327L51.551 40.28C52.191 39.4267 52.927 38.776 53.759 38.328C54.6123 37.88 55.519 37.656 56.479 37.656ZM55.487 40.408C54.7403 40.408 54.0577 40.632 53.439 41.08C52.8203 41.528 52.2763 42.1147 51.807 42.84V50.744C52.639 52.0027 53.7483 52.632 55.135 52.632C56.3723 52.632 57.3003 52.1413 57.919 51.16C58.5377 50.1787 58.847 48.6427 58.847 46.552C58.847 44.3973 58.5697 42.84 58.015 41.88C57.4603 40.8987 56.6177 40.408 55.487 40.408ZM81.5225 54.104C80.8825 54.5093 80.1358 54.8293 79.2825 55.064C78.4292 55.2987 77.5332 55.416 76.5945 55.416C74.6745 55.416 73.1918 54.9253 72.1465 53.944C71.1012 52.9413 70.5785 51.5867 70.5785 49.88V40.728H66.8345V38.104H70.5785V34.328L74.1625 33.912V38.104H79.8905L79.4745 40.728H74.1625V49.848C74.1625 50.7653 74.3972 51.448 74.8665 51.896C75.3358 52.3227 76.0825 52.536 77.1065 52.536C78.2372 52.536 79.2825 52.2693 80.2425 51.736L81.5225 54.104Z" fill="#579A24"/>
</svg>
